<mxfile host="app.diagrams.net" agent="Mozilla/5.0 (Windows NT 10.0; Win64; x64) AppleWebKit/537.36 (KHTML, like Gecko) Chrome/128.0.0.0 Safari/537.36" version="24.7.17">
  <diagram name="Page-1" id="hNk9jKWtRZ3PnQkdw8SD">
    <mxGraphModel dx="1119" dy="823" grid="1" gridSize="10" guides="1" tooltips="1" connect="1" arrows="1" fold="1" page="1" pageScale="1" pageWidth="850" pageHeight="1100" math="0" shadow="0">
      <root>
        <mxCell id="0" />
        <mxCell id="1" parent="0" />
        <mxCell id="17Nm9Soat1oXQYeWevZ1-1" value="Camera" style="rounded=1;whiteSpace=wrap;html=1;" vertex="1" parent="1">
          <mxGeometry x="100" y="130" width="120" height="60" as="geometry" />
        </mxCell>
        <mxCell id="17Nm9Soat1oXQYeWevZ1-13" style="edgeStyle=orthogonalEdgeStyle;rounded=0;orthogonalLoop=1;jettySize=auto;html=1;" edge="1" parent="1" target="17Nm9Soat1oXQYeWevZ1-14">
          <mxGeometry relative="1" as="geometry">
            <mxPoint x="210" y="870" as="targetPoint" />
            <mxPoint x="160" y="650" as="sourcePoint" />
          </mxGeometry>
        </mxCell>
        <mxCell id="17Nm9Soat1oXQYeWevZ1-15" value="Frame Binary" style="edgeLabel;html=1;align=center;verticalAlign=middle;resizable=0;points=[];" vertex="1" connectable="0" parent="17Nm9Soat1oXQYeWevZ1-13">
          <mxGeometry x="0.0615" y="4" relative="1" as="geometry">
            <mxPoint x="48" y="-44" as="offset" />
          </mxGeometry>
        </mxCell>
        <mxCell id="17Nm9Soat1oXQYeWevZ1-16" style="edgeStyle=orthogonalEdgeStyle;rounded=0;orthogonalLoop=1;jettySize=auto;html=1;" edge="1" parent="1">
          <mxGeometry relative="1" as="geometry">
            <mxPoint x="210" y="830" as="targetPoint" />
            <mxPoint x="160" y="650" as="sourcePoint" />
          </mxGeometry>
        </mxCell>
        <mxCell id="17Nm9Soat1oXQYeWevZ1-20" style="edgeStyle=orthogonalEdgeStyle;rounded=0;orthogonalLoop=1;jettySize=auto;html=1;entryX=0.5;entryY=1;entryDx=0;entryDy=0;" edge="1" parent="1" source="17Nm9Soat1oXQYeWevZ1-2" target="17Nm9Soat1oXQYeWevZ1-1">
          <mxGeometry relative="1" as="geometry">
            <mxPoint x="160" y="240" as="targetPoint" />
          </mxGeometry>
        </mxCell>
        <mxCell id="17Nm9Soat1oXQYeWevZ1-2" value="Raspberry Pi" style="rounded=1;whiteSpace=wrap;html=1;" vertex="1" parent="1">
          <mxGeometry x="100" y="400" width="120" height="60" as="geometry" />
        </mxCell>
        <mxCell id="17Nm9Soat1oXQYeWevZ1-14" value="SQL Database" style="strokeWidth=2;html=1;shape=mxgraph.flowchart.database;whiteSpace=wrap;" vertex="1" parent="1">
          <mxGeometry x="50" y="830" width="60" height="60" as="geometry" />
        </mxCell>
        <mxCell id="17Nm9Soat1oXQYeWevZ1-17" value="AWS Model&amp;nbsp;" style="rounded=1;whiteSpace=wrap;html=1;" vertex="1" parent="1">
          <mxGeometry x="150" y="830" width="120" height="60" as="geometry" />
        </mxCell>
        <mxCell id="17Nm9Soat1oXQYeWevZ1-18" style="edgeStyle=orthogonalEdgeStyle;rounded=0;orthogonalLoop=1;jettySize=auto;html=1;entryX=0.5;entryY=1;entryDx=0;entryDy=0;entryPerimeter=0;" edge="1" parent="1" source="17Nm9Soat1oXQYeWevZ1-17" target="17Nm9Soat1oXQYeWevZ1-14">
          <mxGeometry relative="1" as="geometry">
            <Array as="points">
              <mxPoint x="210" y="910" />
              <mxPoint x="80" y="910" />
            </Array>
          </mxGeometry>
        </mxCell>
        <mxCell id="17Nm9Soat1oXQYeWevZ1-19" value="License plate&lt;div&gt;Incemented/Decremented Counter value&lt;/div&gt;" style="edgeLabel;html=1;align=center;verticalAlign=middle;resizable=0;points=[];" vertex="1" connectable="0" parent="17Nm9Soat1oXQYeWevZ1-18">
          <mxGeometry x="0.1529" relative="1" as="geometry">
            <mxPoint y="20" as="offset" />
          </mxGeometry>
        </mxCell>
        <mxCell id="17Nm9Soat1oXQYeWevZ1-23" style="edgeStyle=orthogonalEdgeStyle;rounded=0;orthogonalLoop=1;jettySize=auto;html=1;entryX=0.75;entryY=0;entryDx=0;entryDy=0;" edge="1" parent="1" source="17Nm9Soat1oXQYeWevZ1-21" target="17Nm9Soat1oXQYeWevZ1-2">
          <mxGeometry relative="1" as="geometry" />
        </mxCell>
        <mxCell id="17Nm9Soat1oXQYeWevZ1-24" value="No, poll again" style="edgeLabel;html=1;align=center;verticalAlign=middle;resizable=0;points=[];" vertex="1" connectable="0" parent="17Nm9Soat1oXQYeWevZ1-23">
          <mxGeometry x="0.1412" y="-2" relative="1" as="geometry">
            <mxPoint x="22" as="offset" />
          </mxGeometry>
        </mxCell>
        <mxCell id="17Nm9Soat1oXQYeWevZ1-25" style="edgeStyle=orthogonalEdgeStyle;rounded=0;orthogonalLoop=1;jettySize=auto;html=1;entryX=1;entryY=0.5;entryDx=0;entryDy=0;" edge="1" parent="1" source="17Nm9Soat1oXQYeWevZ1-21" target="17Nm9Soat1oXQYeWevZ1-2">
          <mxGeometry relative="1" as="geometry">
            <Array as="points">
              <mxPoint x="300" y="430" />
            </Array>
          </mxGeometry>
        </mxCell>
        <mxCell id="17Nm9Soat1oXQYeWevZ1-26" value="Yes, feed raspberry pi the binary stream of the image&lt;div&gt;&lt;br&gt;&lt;/div&gt;" style="edgeLabel;html=1;align=center;verticalAlign=middle;resizable=0;points=[];" vertex="1" connectable="0" parent="17Nm9Soat1oXQYeWevZ1-25">
          <mxGeometry x="-0.5294" y="-1" relative="1" as="geometry">
            <mxPoint x="61" as="offset" />
          </mxGeometry>
        </mxCell>
        <mxCell id="17Nm9Soat1oXQYeWevZ1-21" value="Car Detected?" style="strokeWidth=2;html=1;shape=mxgraph.flowchart.decision;whiteSpace=wrap;" vertex="1" parent="1">
          <mxGeometry x="250" y="240" width="100" height="100" as="geometry" />
        </mxCell>
        <mxCell id="17Nm9Soat1oXQYeWevZ1-22" style="edgeStyle=orthogonalEdgeStyle;rounded=0;orthogonalLoop=1;jettySize=auto;html=1;entryX=0.5;entryY=0;entryDx=0;entryDy=0;entryPerimeter=0;" edge="1" parent="1" source="17Nm9Soat1oXQYeWevZ1-1" target="17Nm9Soat1oXQYeWevZ1-21">
          <mxGeometry relative="1" as="geometry" />
        </mxCell>
        <mxCell id="17Nm9Soat1oXQYeWevZ1-29" style="edgeStyle=orthogonalEdgeStyle;rounded=0;orthogonalLoop=1;jettySize=auto;html=1;entryX=0;entryY=0.5;entryDx=0;entryDy=0;exitX=0;exitY=0.5;exitDx=0;exitDy=0;exitPerimeter=0;" edge="1" parent="1" source="17Nm9Soat1oXQYeWevZ1-27" target="17Nm9Soat1oXQYeWevZ1-2">
          <mxGeometry relative="1" as="geometry">
            <mxPoint x="60" y="420" as="targetPoint" />
            <Array as="points">
              <mxPoint x="50" y="560" />
              <mxPoint x="50" y="430" />
            </Array>
          </mxGeometry>
        </mxCell>
        <mxCell id="17Nm9Soat1oXQYeWevZ1-31" value="No, poll again" style="edgeLabel;html=1;align=center;verticalAlign=middle;resizable=0;points=[];" vertex="1" connectable="0" parent="17Nm9Soat1oXQYeWevZ1-29">
          <mxGeometry x="0.0095" y="3" relative="1" as="geometry">
            <mxPoint as="offset" />
          </mxGeometry>
        </mxCell>
        <mxCell id="17Nm9Soat1oXQYeWevZ1-27" value="Binary stream received?" style="strokeWidth=2;html=1;shape=mxgraph.flowchart.decision;whiteSpace=wrap;" vertex="1" parent="1">
          <mxGeometry x="110" y="510" width="100" height="100" as="geometry" />
        </mxCell>
        <mxCell id="17Nm9Soat1oXQYeWevZ1-30" style="edgeStyle=orthogonalEdgeStyle;rounded=0;orthogonalLoop=1;jettySize=auto;html=1;entryX=0.5;entryY=0;entryDx=0;entryDy=0;entryPerimeter=0;" edge="1" parent="1" target="17Nm9Soat1oXQYeWevZ1-14">
          <mxGeometry relative="1" as="geometry">
            <mxPoint x="160.5" y="610" as="sourcePoint" />
            <Array as="points">
              <mxPoint x="160.5" y="650" />
              <mxPoint x="80.5" y="650" />
            </Array>
          </mxGeometry>
        </mxCell>
        <mxCell id="17Nm9Soat1oXQYeWevZ1-33" value="Yes" style="edgeLabel;html=1;align=center;verticalAlign=middle;resizable=0;points=[];" vertex="1" connectable="0" parent="17Nm9Soat1oXQYeWevZ1-30">
          <mxGeometry x="-0.9133" y="-3" relative="1" as="geometry">
            <mxPoint as="offset" />
          </mxGeometry>
        </mxCell>
        <mxCell id="17Nm9Soat1oXQYeWevZ1-34" style="edgeStyle=orthogonalEdgeStyle;rounded=0;orthogonalLoop=1;jettySize=auto;html=1;entryX=0.5;entryY=0;entryDx=0;entryDy=0;entryPerimeter=0;" edge="1" parent="1" source="17Nm9Soat1oXQYeWevZ1-2" target="17Nm9Soat1oXQYeWevZ1-27">
          <mxGeometry relative="1" as="geometry" />
        </mxCell>
        <mxCell id="17Nm9Soat1oXQYeWevZ1-35" style="edgeStyle=orthogonalEdgeStyle;rounded=0;orthogonalLoop=1;jettySize=auto;html=1;entryX=0.857;entryY=0.992;entryDx=0;entryDy=0;entryPerimeter=0;" edge="1" parent="1" source="17Nm9Soat1oXQYeWevZ1-27" target="17Nm9Soat1oXQYeWevZ1-2">
          <mxGeometry relative="1" as="geometry">
            <Array as="points">
              <mxPoint x="160" y="650" />
              <mxPoint x="250" y="650" />
              <mxPoint x="250" y="480" />
              <mxPoint x="203" y="480" />
            </Array>
          </mxGeometry>
        </mxCell>
        <mxCell id="17Nm9Soat1oXQYeWevZ1-36" value="Clear frame binary after transmission to AWS" style="edgeLabel;html=1;align=center;verticalAlign=middle;resizable=0;points=[];" vertex="1" connectable="0" parent="17Nm9Soat1oXQYeWevZ1-35">
          <mxGeometry x="0.2369" y="1" relative="1" as="geometry">
            <mxPoint x="81" y="-2" as="offset" />
          </mxGeometry>
        </mxCell>
      </root>
    </mxGraphModel>
  </diagram>
</mxfile>
